<svg id='Interface_User_Multiple_24' width='24' height='24' viewBox='0 0 24 24' xmlns='http://www.w3.org/2000/svg' xmlns:xlink='http://www.w3.org/1999/xlink'><rect width='24' height='24' stroke='none' fill='#000000' opacity='0'/>


<g transform="matrix(1.43 0 0 1.43 12 12)" >
<g style="" >
<g transform="matrix(1 0 0 1 -2 -3)" >
<path style="stroke: rgb(0,0,0); stroke-width: 1; stroke-dasharray: none; stroke-linecap: round; stroke-dashoffset: 0; stroke-linejoin: round; stroke-miterlimit: 4; fill: none; fill-rule: nonzero; opacity: 1;" transform=" translate(-5, -4)" d="M 5 6.5 C 6.38071 6.5 7.5 5.38071 7.5 4 C 7.5 2.61929 6.38071 1.5 5 1.5 C 3.61929 1.5 2.5 2.61929 2.5 4 C 2.5 5.38071 3.61929 6.5 5 6.5 Z" stroke-linecap="round" />
</g>
<g transform="matrix(1 0 0 1 -2 4)" >
<path style="stroke: rgb(0,0,0); stroke-width: 1; stroke-dasharray: none; stroke-linecap: round; stroke-dashoffset: 0; stroke-linejoin: round; stroke-miterlimit: 4; fill: none; fill-rule: nonzero; opacity: 1;" transform=" translate(-5, -11)" d="M 0.5 13.5 L 5 13.5 L 9.5 13.5 L 9.5 12.9579 C 9.49204 12.1956 9.29102 11.4479 8.91573 10.7844 C 8.54043 10.121 8.0031 9.56347 7.35393 9.16398 C 6.70475 8.76448 5.96491 8.53605 5.20352 8.5 C 5.13564 8.49679 5.06778 8.49511 5 8.49496 C 4.93222 8.49511 4.86436 8.49679 4.79648 8.5 C 4.03509 8.53605 3.29525 8.76448 2.64607 9.16398 C 1.9969 9.56347 1.45957 10.121 1.08427 10.7844 C 0.708977 11.4479 0.507961 12.1956 0.5 12.9579 L 0.5 13.5 Z" stroke-linecap="round" />
</g>
<g transform="matrix(1 0 0 1 3.25 -3)" >
<path style="stroke: rgb(0,0,0); stroke-width: 1; stroke-dasharray: none; stroke-linecap: round; stroke-dashoffset: 0; stroke-linejoin: round; stroke-miterlimit: 4; fill: none; fill-rule: nonzero; opacity: 1;" transform=" translate(-10.25, -4)" d="M 9 6.5 C 10.3807 6.5 11.5 5.38071 11.5 4 C 11.5 2.61929 10.3807 1.5 9 1.5" stroke-linecap="round" />
</g>
<g transform="matrix(1 0 0 1 4.75 4.05)" >
<path style="stroke: rgb(0,0,0); stroke-width: 1; stroke-dasharray: none; stroke-linecap: round; stroke-dashoffset: 0; stroke-linejoin: round; stroke-miterlimit: 4; fill: none; fill-rule: nonzero; opacity: 1;" transform=" translate(-11.75, -11.05)" d="M 11.5 13.5 L 13.5 13.5 L 13.5 12.9579 C 13.492 12.1956 13.291 11.4479 12.9157 10.7844 C 12.5404 10.121 12.0031 9.56347 11.3539 9.16398 C 10.9343 8.90573 10.4767 8.71897 10 8.60945" stroke-linecap="round" />
</g>
</g>
</g>
</svg>