<svg id='Marketing_24' width='24' height='24' viewBox='0 0 24 24' xmlns='http://www.w3.org/2000/svg' xmlns:xlink='http://www.w3.org/1999/xlink'><rect width='24' height='24' stroke='none' fill='#000000' opacity='0'/>


<g transform="matrix(0.77 0 0 0.77 12 12)" >
<path style="stroke: none; stroke-width: 1; stroke-dasharray: none; stroke-linecap: butt; stroke-dashoffset: 0; stroke-linejoin: miter; stroke-miterlimit: 4; fill: rgb(0,0,0); fill-rule: nonzero; opacity: 1;" transform=" translate(-16, -16.5)" d="M 15 4 L 15 6 L 3 6 L 3 7 L 3 24 L 13.777344 24 L 10.998047 27.822266 L 12.617188 28.998047 L 15.998047 24.34375 L 19.382812 29 L 21 27.824219 L 18.220703 24 L 29 24 L 29 6 L 17 6 L 17 4 L 15 4 z M 5 8 L 27 8 L 27 22 L 5 22 L 5 8 z M 19 11 L 19 19 L 21 19 L 21 11 L 19 11 z M 15 13 L 15 19 L 17 19 L 17 13 L 15 13 z M 11 15 L 11 19 L 13 19 L 13 15 L 11 15 z" stroke-linecap="round" />
</g>
</svg>