<svg id='Browser_Marketing_Media_Optimization_Play_Webpage_Website_24' width='24' height='24' viewBox='0 0 24 24' xmlns='http://www.w3.org/2000/svg' xmlns:xlink='http://www.w3.org/1999/xlink'><rect width='24' height='24' stroke='none' fill='#000000' opacity='0'/>
<g transform="matrix(0.53 0 0 0.53 12 12)" >
<path style="stroke: none; stroke-width: 1; stroke-dasharray: none; stroke-linecap: butt; stroke-dashoffset: 0; stroke-linejoin: miter; stroke-miterlimit: 4; fill: rgb(0,0,0); fill-rule: nonzero; opacity: 1;" transform=" translate(-24, -24)" d="M 10.5 6 C 7.468 6 5 8.468 5 11.5 L 5 15.5 L 5 36 C 5 39.290032 7.7099679 42 11 42 L 37 42 C 40.290032 42 43 39.290032 43 36 L 43 15.5 L 43 11.5 C 43 8.468 40.532 6 37.5 6 L 10.5 6 z M 10.5 10 C 11.328 10 12 10.672 12 11.5 C 12 12.328 11.328 13 10.5 13 C 9.672 13 9 12.328 9 11.5 C 9 10.672 9.672 10 10.5 10 z M 15.5 10 C 16.328 10 17 10.672 17 11.5 C 17 12.328 16.328 13 15.5 13 C 14.672 13 14 12.328 14 11.5 C 14 10.672 14.672 10 15.5 10 z M 21.5 10 L 37.5 10 C 38.328 10 39 10.672 39 11.5 C 39 12.328 38.328 13.029297 37.5 13.029297 L 21.5 13.029297 C 20.672 13.029297 20 12.329 20 11.5 C 20 10.671 20.672 10 21.5 10 z M 9 17 L 39 17 L 39 36 C 39 37.127968 38.127968 38 37 38 L 11 38 C 9.8720321 38 9 37.127968 9 36 L 9 17 z M 20.802734 21 C 19.856891 21.019313 19 21.778281 19 22.832031 L 19 31.167969 C 19 32.573969 20.524 33.452859 21.75 32.755859 L 29.074219 28.589844 C 30.309219 27.886844 30.309219 26.112156 29.074219 25.410156 L 21.75 21.244141 C 21.4435 21.069891 21.118016 20.993562 20.802734 21 z" stroke-linecap="round" />
</g>
</svg>