<svg id='Xbox_Menu_24' width='24' height='24' viewBox='0 0 24 24' xmlns='http://www.w3.org/2000/svg' xmlns:xlink='http://www.w3.org/1999/xlink'><rect width='24' height='24' stroke='none' fill='#000000' opacity='0'/>


<g transform="matrix(0.43 0 0 0.43 12 12)" >
<path style="stroke: none; stroke-width: 1; stroke-dasharray: none; stroke-linecap: butt; stroke-dashoffset: 0; stroke-linejoin: miter; stroke-miterlimit: 4; fill: rgb(0,0,0); fill-rule: nonzero; opacity: 1;" transform=" translate(-25, -25)" d="M 25 2 C 12.316406 2 2 12.316406 2 25 C 2 37.683594 12.316406 48 25 48 C 37.683594 48 48 37.683594 48 25 C 48 12.316406 37.683594 2 25 2 Z M 35 32 L 15 32 C 14.449219 32 14 31.554688 14 31 C 14 30.445313 14.449219 30 15 30 L 35 30 C 35.554688 30 36 30.445313 36 31 C 36 31.554688 35.554688 32 35 32 Z M 35 26 L 15 26 C 14.449219 26 14 25.550781 14 25 C 14 24.449219 14.449219 24 15 24 L 35 24 C 35.554688 24 36 24.449219 36 25 C 36 25.550781 35.554688 26 35 26 Z M 35 20 L 15 20 C 14.449219 20 14 19.550781 14 19 C 14 18.449219 14.449219 18 15 18 L 35 18 C 35.554688 18 36 18.449219 36 19 C 36 19.550781 35.554688 20 35 20 Z" stroke-linecap="round" />
</g>
</svg>